<?xml version="1.0" standalone="no"?>
<!DOCTYPE svg PUBLIC "-//W3C//DTD SVG 20010904//EN"
 "http://www.w3.org/TR/2001/REC-SVG-20010904/DTD/svg10.dtd">
<svg version="1.0" xmlns="http://www.w3.org/2000/svg"
 width="738.000000pt" height="738.000000pt" viewBox="0 0 738.000000 738.000000"
 preserveAspectRatio="xMidYMid meet">
<metadata>
Created by potrace 1.14, written by Peter Selinger 2001-2017
</metadata>
<g transform="translate(0.000000,738.000000) scale(0.100000,-0.100000)"
fill="#000000" stroke="none">
<path d="M2988 5085 c-2 -2 -36 -6 -77 -10 -41 -3 -77 -8 -80 -10 -3 -1 -27
-6 -52 -9 -56 -8 -182 -39 -224 -57 -16 -6 -35 -13 -42 -15 -22 -4 -198 -95
-208 -107 -5 -7 -31 -28 -56 -49 -81 -65 -156 -178 -193 -291 -14 -41 -19 -64
-32 -137 -8 -47 -7 -196 1 -240 4 -19 8 -44 10 -55 2 -11 8 -35 13 -52 6 -18
9 -33 7 -33 -8 0 60 -129 91 -172 50 -71 73 -95 134 -141 30 -23 57 -45 60
-48 13 -17 249 -130 280 -134 3 -1 23 -7 45 -14 87 -27 260 -70 264 -66 2 3 9
1 15 -4 6 -5 31 -12 56 -16 24 -4 48 -9 52 -12 5 -2 20 -6 34 -9 14 -3 59 -16
99 -29 40 -14 81 -25 89 -25 9 0 16 -5 16 -11 0 -5 5 -7 10 -4 6 3 10 1 10 -4
0 -6 7 -11 15 -11 16 0 86 -43 119 -72 11 -10 23 -18 27 -18 4 0 14 -19 23
-41 17 -43 14 -91 -7 -117 -15 -19 -80 -50 -118 -57 -18 -3 -35 -8 -39 -10
-30 -19 -462 -26 -715 -12 -241 14 -280 17 -375 32 -8 2 -37 6 -65 9 -27 4
-57 9 -65 11 -8 2 -34 7 -57 10 l-43 6 0 -305 0 -305 43 -12 c23 -6 51 -13 62
-14 11 -2 61 -10 110 -19 50 -8 115 -17 145 -21 30 -3 71 -8 90 -10 193 -23
674 -23 790 0 60 11 77 15 115 20 83 12 247 62 335 103 67 32 173 104 226 153
104 99 184 260 200 405 8 71 8 212 0 255 -37 200 -124 337 -280 443 -126 86
-216 122 -461 187 -82 22 -174 47 -202 54 -29 8 -66 17 -82 20 -17 3 -41 9
-55 15 -15 5 -26 7 -26 4 0 -2 -13 2 -30 11 -16 8 -32 15 -35 14 -12 -2 -116
34 -121 42 -3 5 -14 9 -24 9 -10 0 -20 4 -22 9 -1 5 -10 11 -18 13 -8 2 -19 6
-25 11 -53 39 -68 53 -81 79 -23 45 -23 118 1 149 29 39 100 64 210 76 125 13
535 7 720 -12 22 -2 67 -6 100 -9 57 -5 112 -12 180 -21 28 -4 93 -17 143 -29
27 -6 24 -38 26 314 2 283 1 314 -13 305 -5 -2 -23 0 -42 5 -19 5 -50 12 -69
15 -19 3 -53 10 -75 15 -22 5 -68 12 -103 15 -35 4 -73 8 -85 11 -12 2 -46 6
-74 9 -29 3 -79 8 -110 11 -63 6 -480 14 -485 9z"/>
<path d="M5297 5063 c-2 -1 -25 -5 -52 -9 -63 -8 -70 -9 -127 -27 -26 -8 -49
-12 -52 -9 -4 3 -6 0 -6 -6 0 -7 -3 -11 -7 -10 -12 4 -163 -75 -163 -84 0 -4
-6 -8 -14 -8 -23 0 -169 -152 -223 -232 -50 -75 -108 -207 -119 -271 -10 -59
-12 -221 -4 -262 14 -69 17 -79 44 -143 25 -62 89 -160 140 -216 l27 -28 -23
-16 c-35 -23 -143 -136 -176 -186 -38 -56 -78 -157 -96 -241 -16 -75 -14 -217
3 -285 18 -70 45 -144 54 -151 5 -3 8 -9 8 -13 -2 -9 25 -59 52 -98 62 -92
149 -175 248 -239 43 -28 81 -51 86 -50 4 0 17 -6 28 -13 32 -21 114 -47 205
-66 76 -15 161 -17 838 -18 l752 -1 1 27 c2 63 0 123 -6 131 -3 5 -1 12 4 15
6 4 6 18 1 36 -5 18 -5 30 0 30 6 0 6 10 0 25 -6 15 -6 27 0 30 5 3 6 15 1 28
-5 12 -5 32 0 45 5 12 5 22 -1 22 -5 0 -5 12 0 29 4 16 6 32 3 35 -9 8 -9 116
0 116 4 0 3 8 -2 18 -6 11 -6 24 0 35 6 9 6 17 2 17 -10 0 -10 41 0 57 4 5 4
13 0 17 -10 9 -10 56 0 56 4 0 3 8 -2 18 -5 10 -6 24 -2 31 5 7 6 25 4 39 -2
15 -4 33 -4 40 1 6 1 19 1 27 0 8 0 22 0 30 0 8 0 22 0 30 0 8 0 22 0 30 0 8
0 22 0 30 0 8 0 22 0 30 0 8 0 22 0 30 0 8 0 22 0 30 0 8 0 22 0 30 0 8 0 22
0 30 0 8 0 22 0 30 0 8 0 22 0 30 0 8 0 22 0 30 0 8 0 22 0 30 0 8 0 22 0 30
0 8 0 22 0 30 0 8 0 21 0 28 0 6 -1 38 -2 70 -2 31 1 57 5 57 4 0 3 8 -2 18
-6 11 -6 24 0 35 6 9 6 17 2 17 -10 0 -10 41 0 57 4 5 4 13 0 17 -10 9 -10 56
0 56 4 0 3 8 -2 19 -6 10 -8 21 -5 24 9 8 11 77 2 77 -3 0 -3 14 2 30 5 19 5
30 -1 30 -6 0 -7 5 -4 11 4 6 7 43 7 84 0 41 -3 78 -7 84 -3 6 -2 11 4 11 6 0
6 11 1 30 -5 17 -5 30 0 30 5 0 5 13 0 30 -5 17 -5 30 0 30 5 0 5 13 0 29 -4
15 -4 34 0 42 5 7 5 20 0 29 -4 8 -4 22 0 31 5 8 5 20 1 27 -4 7 -4 35 -1 62
4 28 3 50 -1 50 -4 0 -4 14 1 30 5 17 5 30 2 30 -4 0 -6 17 -4 38 4 50 4 54
-1 77 -4 20 -12 20 -711 20 -389 0 -708 -1 -709 -2z m761 -822 l-3 -215 -344
-1 c-364 0 -402 4 -451 48 -50 44 -74 97 -76 166 -2 36 2 71 8 78 6 7 7 13 3
13 -10 0 45 72 69 90 45 34 80 37 438 37 l358 0 -2 -216z m2 -1037 l0 -214
-403 0 -403 0 -52 26 c-151 75 -145 298 10 381 36 19 57 20 443 20 l405 0 0
-213z"/>
<path d="M973 4466 c-79 -78 -143 -146 -143 -149 0 -3 66 -72 147 -152 l147
-146 149 149 149 150 -146 146 c-80 80 -149 146 -153 146 -5 0 -72 -65 -150
-144z m254 -52 l95 -97 -99 -99 -99 -99 -84 83 c-130 129 -128 105 -19 214 52
51 98 94 102 94 4 0 51 -43 104 -96z"/>
<path d="M1076 4371 c-25 -26 -46 -50 -46 -54 0 -3 21 -27 46 -53 l47 -46 49
50 50 49 -50 51 -49 50 -47 -47z"/>
<path d="M426 4019 l-199 -199 195 -195 c108 -107 200 -195 204 -195 5 0 97
88 204 195 l195 195 -123 123 c-68 67 -126 127 -130 132 -4 6 -39 40 -77 77
l-70 67 -199 -200z m349 -349 l-150 -150 -148 151 -149 151 149 148 148 149
150 -150 149 -150 -149 -149z"/>
<path d="M525 3919 c-54 -54 -97 -101 -94 -103 70 -76 185 -186 193 -186 6 0
54 43 106 95 l94 94 -50 53 c-27 29 -72 74 -99 100 l-51 47 -99 -100z m155
-144 c-24 -25 -49 -45 -55 -45 -6 0 -31 20 -55 45 l-44 45 49 50 50 50 49 -50
50 -50 -44 -45z"/>
<path d="M1521 3920 l-101 -99 49 -48 c27 -26 72 -72 100 -100 l51 -53 100
100 100 100 -99 100 -99 99 -101 -99z m176 -123 c-13 -12 -35 -34 -50 -49
l-26 -28 -50 52 -49 51 50 49 50 49 50 -52 49 -51 -24 -21z"/>
<path d="M875 3570 l-249 -249 246 -245 c136 -135 249 -246 252 -246 2 0 116
111 251 246 l247 246 -190 189 c-104 104 -188 190 -188 191 1 2 -26 29 -59 60
l-61 57 -249 -249z m533 -134 c9 -10 28 -28 41 -40 43 -37 61 -59 61 -73 0
-13 -376 -393 -389 -393 -9 0 -379 375 -383 388 -2 6 85 99 192 207 l194 195
134 -132 c73 -73 141 -142 150 -152z"/>
<path d="M979 3475 c-79 -80 -146 -148 -149 -151 -5 -5 281 -294 292 -294 4 0
73 65 153 145 l146 146 -28 32 c-15 18 -82 85 -149 150 l-120 117 -145 -145z
m245 -54 l98 -99 -98 -96 c-53 -53 -100 -96 -103 -96 -4 0 -48 43 -100 95
l-94 94 38 42 c56 62 149 157 155 158 3 1 50 -43 104 -98z"/>
<path d="M1073 3375 c-24 -23 -43 -46 -43 -51 0 -11 82 -94 93 -94 5 0 30 21
54 46 l46 46 -49 49 c-26 27 -51 48 -54 48 -3 -1 -24 -20 -47 -44z"/>
</g>
</svg>
